<?xml version="1.0" encoding="UTF-8"?>
<svg width="512" height="512" version="1.1" viewBox="0 0 134.46 135.46" xmlns="http://www.w3.org/2000/svg"><path d="m70.4 2.6497a9.7413 23.357 14.684 0 0-14.02 18.888 9.7413 23.357 14.684 0 0-1.9814 16.403 15.373 25.003 72.087 0 0-28.603 10.511 15.373 25.003 72.087 0 0-3.7928 15.313 24.89 15.5 12.078 0 0 13.791 11.694v0.10461a2.6032 4.99 2.4352 0 1 0.10245 0.01518 2.6032 4.99 2.4352 0 1 1.9051 5.8113 2.6032 4.99 2.4352 0 1-0.02181 0.11119h0.0087a12.958 29.184 11.357 0 0 2.5765 18.066 32.522 25.998 33.999 0 0 1.8179 3.8691 4.378 14.989 13.596 0 0-0.60162 1.9465 4.378 14.989 13.596 0 0-0.34658 17.312 4.378 14.989 13.596 0 0 4.3116-2.7858 5.5654 16.556 16.422 0 0 0.77382 10.493 6.9498 25.104 69.258 0 0 6.3148 1.9727 6.9498 25.104 69.258 0 0 21.848-5.4168 27.035 14.835 4.8093e-8 0 0 6.4216 0.42506 27.035 14.835 4.8093e-8 0 0 25.998-10.766 5.3363 5.1427 0 0 0 1.2621 0.15042 5.3363 5.1427 0 0 0 5.3361-5.1443 5.3363 5.1427 0 0 0-3.8647-4.9394 7.3311 17.513 2.6133e-6 0 0 1.8179-11.54 7.3311 17.513 2.6133e-6 0 0-2.9449-14.031 27.989 15.621 9.5793 0 0-8.1415-8.4532 27.989 15.621 9.5793 0 0-29.471-6.1927 8.6872 16.161 4.0471e-6 0 0 1.2076-8.2156v-0.08284a8.6872 16.161 4.0471e-6 0 0-4.6211-14.199 9.6894 21.874 30.748 0 0 10.138-10.705l0.05884-0.09155a9.6894 21.874 30.748 0 0 4.5601-24.865 9.6894 21.874 30.748 0 0-6.657-0.3444 9.7413 23.357 14.684 0 0-3.6882-4.996 9.7413 23.357 14.684 0 0-1.4953-0.31825zm4.9503 72.626a22.258 22.258 0 0 1 22.258 22.258 22.258 22.258 0 0 1-22.258 22.258 22.258 22.258 0 0 1-22.258-22.258 22.258 22.258 0 0 1 22.258-22.258zm-18.5 44.042a27.035 14.835 4.8093e-8 0 1 0.0022 2e-3 27.035 14.835 4.8093e-8 0 0 0.18965 0.19619 6.9498 25.104 69.258 0 0-0.32699 0.17877 5.5654 16.556 16.422 0 0 0.13515-0.3771z" fill="#fff" stroke-width="1.116"/><g transform="matrix(.13911 0 0 .13911 19.753 17.909)"><path d="m392.33 496.48c-8.2725-82.935 24.083-82.939 15.287 0" fill="none" stroke="#fff" stroke-linecap="round" stroke-width="8.9553"/><g transform="translate(-31,-64.5)"><path transform="matrix(8.0225 0 0 8.0225 -107.59 -63.083)" d="m61.445 71.135c-0.85255-0.05493-0.79939 2.6672 1.5938 7.6406l1.7891-0.65234c-1.1745-4.7296-2.6306-6.9398-3.3828-6.9883zm11.395 0.0293c-0.75408 0.0479-2.2265 2.2517-3.4297 6.9707l1.791 0.65234c2.4257-4.9618 2.4933-7.6773 1.6387-7.623zm-16.387 2.8574c-1.088-0.03586-0.23686 2.5706 3.9453 6.6523l1.459-1.2246c-2.5399-3.7731-4.5581-5.3998-5.4043-5.4277zm21.365 0.05469c-0.84903 0.02566-2.8817 1.6418-5.4434 5.3965l1.459 1.2246c4.2104-4.0584 5.076-6.6541 3.9844-6.6211zm-24.789 4.3398c-1.8105-0.09467-0.37872 2.2709 5.5391 4.9434l0.95117-1.6484c-3.1519-2.2945-5.4039-3.2381-6.4902-3.2949zm28.188 0.07031c-1.0894 0.05154-3.3497 0.98263-6.5137 3.2559l0.95312 1.6504c5.9384-2.6373 7.3762-4.9921 5.5605-4.9062zm-28.844 5.1191c-3.9261-0.05922-2.3773 2.3215 5.3926 2.9062l0.33203-1.877c-2.4977-0.71873-4.4159-1.0096-5.7246-1.0293zm29.471 0.07227c-1.3101 0.01172-3.2281 0.28953-5.7285 0.99219l0.33008 1.877c7.7787-0.53665 9.3288-2.9043 5.3984-2.8691zm-24.084 4.1934c-10.372 0.71554-9.6717 4.6856 0.33008 1.875zm18.68 0.03516-0.33203 1.877c9.9908 2.8749 10.692-1.0973 0.33203-1.877zm-17.891 3.1191c-9.5014 4.2197-7.4842 7.7123 0.95312 1.6504zm17.088 0.03125-0.95117 1.6504c8.405 6.1186 10.42 2.6255 0.95117-1.6504zm-15.266 2.6641c-7.4852 7.2149-4.3962 9.8067 1.459 1.2246zm13.436 0.02344-1.459 1.2246c5.8055 8.6243 8.894 6.0319 1.459-1.2246zm-10.803 1.8867c-4.5661 9.3398-0.77577 10.719 1.791 0.65234zm8.1641 0.01172-1.791 0.65234c2.5057 10.09 6.2958 8.7094 1.791-0.65234zm-5.0371 0.88281c-1.0963 10.338 2.9374 10.338 1.9062 0z" fill="none" stroke="#fff" stroke-linecap="round" stroke-width="1.1163"/></g></g><circle cx="75.35" cy="97.533" r="10.351" fill="none" stroke="#fff" stroke-linejoin="round" stroke-width="1.2548"/><path d="m75.341 90.292c-3.5584 0.18163-0.91338 2.7628-0.04134 4.2811 0.85975-1.5755 3.7285-4.0801 0.04134-4.2811zm-0.04134 4.2811c-0.09297 0.17037-0.1632 0.33062-0.19834 0.47519l0.40979-0.02405c-0.04273-0.13498-0.11714-0.287-0.21146-0.45121zm-5.5977-0.74548c-0.42143 0.02235-0.83934 0.42982-1.2425 1.4735-0.92656 3.4392 2.3427 1.7212 4.0566 1.3602-0.8591-0.90942-1.8448-2.8855-2.8141-2.8337zm2.8141 2.8337c0.13342 0.14122 0.26346 0.25752 0.39018 0.33568l0.10465-0.39452c-0.14198-0.0011-0.30881 0.01983-0.49481 0.05884zm8.4052-2.8097c-0.96584 0.02657-1.9766 1.8399-2.7749 2.7225 1.7643 0.33138 5.0308 2.2842 4.0827-1.2839-0.40756-1.0661-0.85263-1.4511-1.3079-1.4386zm-2.7749 2.7225c-0.19112-0.03585-0.36364-0.05268-0.51225-0.04134l0.14603 0.38144c0.11524-0.08238 0.23908-0.19952 0.36622-0.34006zm-1.1422 2.825-0.31826 0.25942c0.11372 0.0839 0.26351 0.16248 0.43596 0.23976-0.02488-0.19196-0.06129-0.36183-0.11773-0.49917zm0.11773 0.49917c0.23103 1.7795-0.61896 5.4927 2.4828 3.4876 2.7726-2.2389-0.88536-2.7717-2.4828-3.4876zm-3.383-0.43377c-0.04471 0.13409-0.07352 0.30033-0.09373 0.48827 0.17476-0.083 0.32501-0.16991 0.43813-0.26591zm-0.09373 0.48827c-1.6209 0.76968-5.4159 1.1093-2.5503 3.4397 2.9861 1.945 2.3631-1.6992 2.5503-3.4397z" fill="none" stroke="#fff" stroke-width="3.2149"/></svg>
