<?xml version="1.0" encoding="UTF-8"?>
<svg width="512" height="512" version="1.1" viewBox="0 0 134.46 135.46" xmlns="http://www.w3.org/2000/svg"><rect width="100%" height="100%" fill="#9c2c2c"/><path d="m70.4 2.6497a9.7413 23.357 14.684 0 0-14.02 18.888 9.7413 23.357 14.684 0 0-1.9814 16.403 15.373 25.003 72.087 0 0-28.603 10.511 15.373 25.003 72.087 0 0-3.7928 15.313 24.89 15.5 12.078 0 0 13.791 11.694v0.10461a2.6032 4.99 2.4352 0 1 0.10245 0.01518 2.6032 4.99 2.4352 0 1 1.9051 5.8113 2.6032 4.99 2.4352 0 1-0.02181 0.11119h0.0087a12.958 29.184 11.357 0 0 2.5765 18.066 32.522 25.998 33.999 0 0 1.8179 3.8691 4.378 14.989 13.596 0 0-0.60162 1.9465 4.378 14.989 13.596 0 0-0.34658 17.312 4.378 14.989 13.596 0 0 4.3116-2.7858 5.5654 16.556 16.422 0 0 0.77382 10.493 6.9498 25.104 69.258 0 0 6.3148 1.9727 6.9498 25.104 69.258 0 0 21.848-5.4168 27.035 14.835 4.8093e-8 0 0 6.4216 0.42506 27.035 14.835 4.8093e-8 0 0 25.998-10.766 5.3363 5.1427 0 0 0 1.2621 0.15042 5.3363 5.1427 0 0 0 5.3361-5.1443 5.3363 5.1427 0 0 0-3.8647-4.9394 7.3311 17.513 2.6133e-6 0 0 1.8179-11.54 7.3311 17.513 2.6133e-6 0 0-2.9449-14.031 27.989 15.621 9.5793 0 0-8.1415-8.4532 27.989 15.621 9.5793 0 0-29.471-6.1927 8.6872 16.161 4.0471e-6 0 0 1.2076-8.2156v-0.08284a8.6872 16.161 4.0471e-6 0 0-4.6211-14.199 9.6894 21.874 30.748 0 0 10.138-10.705l0.05884-0.09155a9.6894 21.874 30.748 0 0 4.5601-24.865 9.6894 21.874 30.748 0 0-6.657-0.3444 9.7413 23.357 14.684 0 0-3.6882-4.996 9.7413 23.357 14.684 0 0-1.4953-0.31825zm4.9503 72.626a22.258 22.258 0 0 1 22.258 22.258 22.258 22.258 0 0 1-22.258 22.258 22.258 22.258 0 0 1-22.258-22.258 22.258 22.258 0 0 1 22.258-22.258zm-18.5 44.042a27.035 14.835 4.8093e-8 0 1 0.0022 2e-3 27.035 14.835 4.8093e-8 0 0 0.18965 0.19619 6.9498 25.104 69.258 0 0-0.32699 0.17877 5.5654 16.556 16.422 0 0 0.13515-0.3771z" fill="#fff" stroke-width="1.116"/><path transform="matrix(.26458 0 0 .26458 -.5 0)" d="m286.95 296.03c-3.1313 2e-4 -6.2959 10.904-4.1211 32.707h8.0371c2.3123-21.804-0.78474-32.707-3.916-32.707zm-24.09 4.6367c-3.5962-0.23173-3.372 11.25 6.7227 32.229l7.5469-2.752c-4.9544-19.95-11.096-29.272-14.27-29.477zm48.064 0.12304c-3.1808 0.20206-9.3916 9.4989-14.467 29.404l7.5547 2.75c10.232-20.93 10.517-32.383 6.9121-32.154zm-69.123 12.053c-4.5895-0.15126-0.99857 10.843 16.643 28.061l6.1543-5.166c-10.714-15.916-19.227-22.777-22.797-22.895zm90.123 0.23047c-3.5813 0.10824-12.156 6.9258-22.961 22.764l6.1543 5.166c17.76-17.119 21.411-28.069 16.807-27.93zm-45.248 16.438a39.123 39.123 0 0 0-39.123 39.123 39.123 39.123 0 0 0 39.123 39.123 39.123 39.123 0 0 0 39.123-39.123 39.123 39.123 0 0 0-39.123-39.123zm-59.992 1.8613c-6.5653 0.23286-0.14116 9.9388 24.041 20.859l4.0117-6.9531c-13.295-9.6785-22.795-13.659-27.377-13.898-0.23866-0.0125-0.464-0.0153-0.67578-8e-3zm120.25 0.30079c-0.21237-9e-3 -0.43839-7e-3 -0.67773 4e-3 -4.5953 0.2174-14.128 4.1455-27.475 13.734l4.0195 6.9609c24.266-10.777 30.716-20.435 24.133-20.699zm-122.35 21.598c-16.561-0.24979-10.027 9.7913 22.748 12.258l1.4004-7.916c-10.536-3.0317-18.628-4.2585-24.148-4.3418zm124.31 0.30469c-5.5264 0.0494-13.617 1.2216-24.164 4.1856l1.3906 7.916c32.812-2.2637 39.353-12.25 22.773-12.102zm-101.59 17.688c-43.749 3.0183-40.797 19.766 1.3926 7.9102zm78.795 0.14844-1.4004 7.918c42.143 12.127 45.1-4.6292 1.4004-7.918zm-75.467 13.158c-40.078 17.799-31.568 32.531 4.0215 6.9609zm72.08 0.13086-4.0117 6.9609c35.454 25.809 43.951 11.076 4.0117-6.9609zm-64.393 11.238c-31.574 30.434-18.544 41.365 6.1543 5.1641zm56.674 0.0977-6.1543 5.166c24.488 36.379 37.516 25.443 6.1543-5.166zm-45.568 7.959c-19.261 39.397-3.2725 45.217 7.5547 2.752zm34.438 0.0488-7.5547 2.752c10.569 42.56 26.556 36.738 7.5547-2.752zm-21.248 3.7246c-4.6246 43.609 12.391 43.607 8.041 0z" fill="none" stroke="#fff" stroke-linecap="round" stroke-width="4.7087"/><path d="m75.341 90.292c-3.5584 0.18163-0.91338 2.7628-0.04134 4.2811 0.85975-1.5755 3.7285-4.0801 0.04134-4.2811zm-0.04134 4.2811c-0.09297 0.17037-0.1632 0.33062-0.19834 0.47519l0.40979-0.02405c-0.04273-0.13498-0.11714-0.287-0.21146-0.45121zm-5.5977-0.74548c-0.42143 0.02235-0.83934 0.42982-1.2425 1.4735-0.92656 3.4392 2.3427 1.7212 4.0566 1.3602-0.8591-0.90942-1.8448-2.8855-2.8141-2.8337zm2.8141 2.8337c0.13342 0.14122 0.26346 0.25752 0.39018 0.33568l0.10465-0.39452c-0.14198-0.0011-0.30881 0.01983-0.49481 0.05884zm8.4052-2.8097c-0.96584 0.02657-1.9766 1.8399-2.7749 2.7225 1.7643 0.33138 5.0308 2.2842 4.0827-1.2839-0.40756-1.0661-0.85263-1.4511-1.3079-1.4386zm-2.7749 2.7225c-0.19112-0.03585-0.36364-0.05268-0.51225-0.04134l0.14603 0.38144c0.11524-0.08238 0.23908-0.19952 0.36622-0.34006zm-1.1422 2.825-0.31826 0.25942c0.11372 0.0839 0.26351 0.16248 0.43596 0.23976-0.02488-0.19196-0.06129-0.36183-0.11773-0.49917zm0.11773 0.49917c0.23103 1.7795-0.61896 5.4927 2.4828 3.4876 2.7726-2.2389-0.88536-2.7717-2.4828-3.4876zm-3.383-0.43377c-0.04471 0.13409-0.07352 0.30033-0.09373 0.48827 0.17476-0.083 0.32501-0.16991 0.43813-0.26591zm-0.09373 0.48827c-1.6209 0.76968-5.4159 1.1093-2.5503 3.4397 2.9861 1.945 2.3631-1.6992 2.5503-3.4397z" fill="none" stroke="#fff" stroke-width="3.2149"/><circle cx="75.35" cy="97.533" r="2.2306" fill="#fff" stroke="#9c2c2c" stroke-linecap="round" stroke-linejoin="round" stroke-width=".92784"/><circle cx="75.35" cy="97.533" r="1.1876" fill="#9c2c2c"/></svg>
